<svg xmlns="http://www.w3.org/2000/svg" xmlns:xlink="http://www.w3.org/1999/xlink" viewBox="0 0 600 282.2"><defs><style>.a,.b{fill-rule:evenodd;}.a{fill:url(#a);}.b{fill:url(#b);}</style><linearGradient id="a" x1="269.07" y1="303.08" x2="276.88" y2="79.57" gradientUnits="userSpaceOnUse"><stop offset="0" stop-color="#5a5d5e"/><stop offset="0.37" stop-color="#898b8c"/><stop offset="1" stop-color="#e2e3e2"/></linearGradient><linearGradient id="b" x1="511.95" y1="387.07" x2="529.24" y2="-107.89" xlink:href="#a"/></defs><title>Ant1</title><path class="a" d="M311.41,202.06l-.69-100.69c-6.84-1.16-8.13-1.42-15-1.42-4.3,0-11.4.22-15.45,1-5,1-7.85,3.47-11,5.77-6.43,4.69-9.42,10.89-14.18,19.09-16,27.5-33.29,57.32-48.8,85-4,7.13-8.06,13.85-12.16,21.1L182,253.13c1.5-17.62,24.55-120.14,29.62-152.55-19,.17-48.37-2.14-63.13,4.41-13.59,6-19.36,18.23-29,28.93C82.7,177.37,37.59,235.67,0,281.28l28.77.17c12.12,0,18.45-7.19,26.06-14.62,3.48-3.39,7.4-8.28,9.76-10.58,5-4.9,8.49-3.57,17-3.57,6.87,0,35.92.77,40.23-.62,3.21-1,2.86-2.89,3.6-6.54s3-13.35,4-19.87c.47-3.13.47-3.37-2.82-3.59H96.48c-5.81,0,2.1-7.29,4.41-10.12,19.74-24.16,41.12-51.13,61.65-74.65L135.71,267.46c-1.66,8-6.13,11.83,1,13.2,1,.19,41.31.75,55.24.79,9.55,0,16.89-4.49,22.43-10.81,2.31-2.64,18.06-31.09,20.7-35.65,10.36-17.87,20.26-35.67,30.75-53.37a13.69,13.69,0,0,1,2.53-3.6c0,2.84-1.13,65.11,0,87.2.71,13.69-3.29,16.43,8.8,16.29,25.34-.28,32.72,1.17,47.19-24.15,16.18-28.59,54.34-97,69.68-122.83,1-1.31,1.79-4.26,4.54-4.22,0,0,40.31,0,41,.24,2.36-.32.35,2.93-.65,4.83-12.61,23.86-75.2,132.1-81.59,145l27.12.82c12.78,0,19.55-7.44,25.21-17.54,15.41-27.52,31.74-54.34,47.22-81.9,8.95-15.92,18.53-31.38,27.43-47.32,1.48-2.65,2.66-4.56,6.19-4.66,7-.18,14.44,0,21.54,0,4.25,0,18.17.89,20.45-1.17.85-.77,8.66-18,10.89-21.19,4-8.44,4-7.9-6.44-7.91-46.74-.08-95.58.25-143.19.3-8.38,0-15.62.68-22.5,5.73-7.73,5.67-11.5,12.63-16.83,22.29C347.12,141.26,313.71,199.22,311.41,202.06Z" transform="translate(0 0)"/><path class="b" d="M451.46,85.89c30.83-.18,80.29-.32,114.26-.06,11.46-.72,7.27.83.88,15-3.52,7.79-9.57,19.64-13.59,27.86-8.48,17.32-5.45,14.24-27.56,14.24-6.45,0-15-1.29-18.41,2.81-12.16,22-56.53,99.61-71.3,127.71-3,5.69-5.09,9,2.95,8.75,46.81-1.37,95.69-.07,142.72-.07,8,0,12.25-.37,15.32-6.05,2.73-5.05,2-12.86,2-19.23,0-78.21,1.06-156.88,1.06-235.13,0-3.49.69-19.42-.72-20.84-2-2-5.28-.06-7.53.88-12,5-26.49,10.4-38.76,15.24-30.38,12-62.05,24.73-92.54,36.22-5.07,1.91-9.51,5.45-9.73,11.91C450.34,71.37,449.87,80.53,451.46,85.89Z" transform="translate(0 0)"/></svg>