<svg xmlns="http://www.w3.org/2000/svg" viewBox="0 0 700.63 700.6"><defs><style>.a{fill:#d9202a;}</style></defs><title>Chilevision</title><path class="a" d="M728.17,107.57A350.29,350.29,0,0,0,338.21,81,350.36,350.36,0,0,0,166.28,432.16l.74.65h0l.69-.71c6.37-131.25,78-248.79,191.66-314.42a383.8,383.8,0,0,1,368.09-8.76l.35.07.77-.75Z" transform="translate(-163 -34)"/><path class="a" d="M341.34,315.55A109.74,109.74,0,0,1,383,323.47h.59L384,323l10.17-38.62-.39-.84c-8.8-4.42-28.45-9.64-54.73-9.64-72.58,0-121.34,46.21-121.34,115,0,66.79,44.61,108.31,116.41,108.31,27.95,0,48.19-5,57-9.33l.39-.8-7.55-38-.35-.51-.61,0c-10.56,4.11-27.58,7-41.36,7-43.89,0-70.06-26-70.06-69.5s26.71-70.44,69.72-70.44m252-38.17H543.54l-.72.72v82H462v-82l-.72-.72H411.12l-.71.72V493.26l.71.73h50.16l.72-.73V404h80.82v89.29l.72.73h49.83l.73-.73V278.1ZM810,277.7l-.6-.32h-53.1l-.69.52-28.19,92c-8,26-14.63,51.23-19.78,74.95-5-25.11-11.39-48.55-19.48-75.93l-26.86-91-.69-.53H605.8l-.59.31-.09.68,70.8,215.12.69.51H735l.69-.5L810,278.36Z" transform="translate(-163 -34)"/><path class="a" d="M862.49,355.88l-.73-.68-.74.64A399,399,0,0,1,800,523,395.11,395.11,0,0,1,314.82,671.19l-.93.31.22,1A350.37,350.37,0,0,0,862.49,355.88" transform="translate(-163 -34)"/><polygon class="a" points="610.44 635.12 610.44 638.24 601.54 638.24 601.54 661.54 597.92 661.54 597.92 638.24 589.03 638.24 589.03 635.12 610.44 635.12"/><path class="a" d="M776.62,669.12h5.15l7.57,22.34,7.55-22.34H802v26.42h-3.43V679.93c0-.52,0-1.43,0-2.67s0-2.58,0-4l-7.54,22.27h-3.54l-7.62-22.27v.82c0,.62,0,1.64.06,2.93s0,2.31,0,2.92v15.61h-3.43V669.12Z" transform="translate(-163 -34)"/></svg>