<svg xmlns="http://www.w3.org/2000/svg" xmlns:xlink="http://www.w3.org/1999/xlink" viewBox="0 0 1000 369.13"><defs><style>.a{fill:none;}.b{fill:#ce147f;}.c{fill:#7b6fb1;}.d{fill:#944c98;}.e{fill:#ba348d;}.f{fill:#1273b8;}.g{fill:#1f8dcc;}.h{fill:#16a5b6;}.i{fill:#13af9a;}.j{fill:#30ad69;}.k{fill:#75ba43;}.l{fill:#f9b234;}.m{fill:#f28921;}.n{fill:#ea312c;}.o{fill:#d81d4a;}.p{fill:#5ac7ee;}.q{fill:#727071;}.r{clip-path:url(#a);}</style><clipPath id="a"><polygon class="a" points="432.86 211.83 999.5 211.83 999.5 -282.93 432.86 -282.93 432.86 211.83 432.86 211.83"/></clipPath></defs><title>Artboard 1</title><path class="b" d="M68,151.14,9.3,125.19,19.58,102l58.65,26Z"/><path class="c" d="M154.41.5l-2.65,81.33,25.38.83L179.8,1.32Z"/><path class="d" d="M107.92,97.62l-19-40.52,25.28-11.86,19,40.52Z"/><path class="e" d="M89.92,112.54,21.1,40.77l8.51-8.17,68.83,71.77Z"/><path class="f" d="M195.39,87.51l25.85-58.14L232,34.17,206.17,92.3Z"/><path class="g" d="M223.72,103.7l68.83-68.65,12.74,12.77-68.83,68.65Z"/><path class="h" d="M252.8,212.12l81.24,38-7.3,15.58-81.24-38Z"/><path class="i" d="M235.56,241.73l45,43.92-9.74,10-45-43.93Z"/><path class="j" d="M213.79,260.87l25.42,54.3-23.4,11-25.42-54.3Z"/><path class="k" d="M171.78,275.46l1.51,92.88-18.34.29-1.49-92.88Z"/><path class="l" d="M132.85,271.77l-18.11,43.82-17.47-7.23,18.12-43.81Z"/><path class="m" d="M99.78,253.74,25.57,328.18,12.18,314.84l74.21-74.45Z"/><path class="n" d="M77,227.13,33.86,246l-8.48-19.41,43.19-18.86Z"/><path class="o" d="M64.64,186.73l-64,.86L.5,174.76l64-.87Z"/><path class="p" d="M246.24,131.23,305,107.54l9.17,22.74L255.42,154Z"/><path class="f" d="M258.36,167.32l47.22,1.86-1.21,30.52-47.23-1.87Z"/><path class="q" d="M465.39,188.23,437.2,146.08l-1.65.18-2.69,64.36h10.67l.69-38.17,20.21,30.43h1.31l20-30.34.86,38.08H497.3l-2.69-64.36-1.74-.18Z"/><path class="q" d="M519,147v63.59h38.76v-9.89H529.82V183.12h25.24v-9.54H529.82V156.93h27.93V147Z"/><g class="r"><path class="q" d="M622.79,178.26a25,25,0,0,0-1.56-9,18.41,18.41,0,0,0-4.68-7,21.52,21.52,0,0,0-7.72-4.51,32.57,32.57,0,0,0-10.66-1.6,54.31,54.31,0,0,0-8.16.51V201a33.8,33.8,0,0,0,4,.44c1.33,0,3,.07,5.12.07a29,29,0,0,0,10.58-1.73,19.87,19.87,0,0,0,7.37-4.85,19.43,19.43,0,0,0,4.34-7.38,30.2,30.2,0,0,0,1.38-9.28m11.63,0a36,36,0,0,1-2.25,12.67,28.78,28.78,0,0,1-6.82,10.45,32.78,32.78,0,0,1-11.5,7.11,45.75,45.75,0,0,1-16.38,2.64c-1.74,0-3.37,0-4.9-.08s-3-.14-4.47-.22-2.89-.18-4.33-.31-3-.25-4.6-.43V147.65c3.12-.35,6.06-.62,8.8-.79s5.72-.25,8.89-.25a48.77,48.77,0,0,1,16.48,2.51A33.64,33.64,0,0,1,625.05,156a27.92,27.92,0,0,1,7,10.1,31.87,31.87,0,0,1,2.35,12.18"/><path class="q" d="M653.11,147H664v63.58H653.11Z"/><path class="q" d="M709.65,166.21l-9,21.24h18Zm18.74,44.4L722.24,196H697.07l-6.15,14.57H679.74l29.31-64.44h1.56l29.23,64.44Z"/><path class="q" d="M753.67,210.62V147h10.85v53.7h27.93v9.89Z"/><path class="q" d="M833.84,166.21l-9,21.24h18Zm18.74,44.4L846.42,196H821.28l-6.16,14.57H803.93l29.31-64.44h1.57L864,210.61Z"/><path class="q" d="M902.1,166.21l-9,21.24h18Zm18.74,44.4L914.68,196H889.53l-6.15,14.57H872.19l29.3-64.44h1.58l29.22,64.44Z"/><path class="q" d="M998.29,211.83l-39.81-42v40.78H947.63V146.17l1.74-.35,39.29,41.38V147H999.5v64.54Z"/></g></svg>