<?xml version="1.0" encoding="utf-8"?>
<!-- Generator: Adobe Illustrator 21.1.0, SVG Export Plug-In . SVG Version: 6.00 Build 0)  -->
<svg version="1.1"
	 id="svg2" inkscape:version="0.91 r13725" sodipodi:docname="RTP(small).svg" xmlns:cc="http://creativecommons.org/ns#" xmlns:dc="http://purl.org/dc/elements/1.1/" xmlns:inkscape="http://www.inkscape.org/namespaces/inkscape" xmlns:rdf="http://www.w3.org/1999/02/22-rdf-syntax-ns#" xmlns:sodipodi="http://sodipodi.sourceforge.net/DTD/sodipodi-0.dtd" xmlns:svg="http://www.w3.org/2000/svg"
	 xmlns="http://www.w3.org/2000/svg" xmlns:xlink="http://www.w3.org/1999/xlink" x="0px" y="0px" viewBox="0 0 2000 1478"
	 style="enable-background:new 0 0 2000 1478;" xml:space="preserve">
<style type="text/css">
	.st0{fill:#32BAF2;}
	.st1{fill:#0271F9;}
	.st2{fill:#0A217C;}
</style>
<g>
	<path id="path3349" inkscape:connector-curvature="0" d="M0,1240.5V1004l227.7,0.4c251.4,0.4,232.4-0.1,257.7,6.7
		c66.1,17.7,116.2,70.7,129.7,137.3c2,9.7,2.3,14.3,2.3,33.3c0,24.4-1.6,35.5-7.6,53.8c-12.1,36.5-38.5,71.1-69.7,91.2
		c-3.4,2.2-6.2,4.4-6.2,4.8c0,0.4,18.4,32.4,40.8,71s41.4,71.2,42,72.4l1.2,2.2h-63.9h-63.9l-33.7-57.2c-18.5-31.5-34.4-58-35.3-59
		c-1.4-1.7-9.7-1.7-152.6-1.5l-151.1,0.3l-0.3,58.7L117,1477H58.5H0V1240.5z M437.4,1252c16.7-2.3,31.6-9.7,43.1-21.5
		c38-38.7,20.7-101.2-32.5-117.7l-7.5-2.3l-161.7-0.3L117,1110v70.8c0,39,0.3,71.1,0.7,71.5C118.8,1253.5,429,1253.1,437.4,1252z
		 M940.7,1293.8l-0.3-183.2l-117.2-0.3L706,1110v-53v-53h293.5h293.5v53v53h-117h-117v183.5V1477h-59h-59L940.7,1293.8z
		 M1392.9,1240.5v-236.5h212.2c133.9,0,217.1,0.4,225.5,1c65.7,5,121.1,41.1,150,97.8c27.3,53.4,24.7,118.4-6.8,169.7
		c-23.8,38.7-63.1,67.8-107.5,79.5c-23.5,6.2-16.6,6-194.4,6h-162.1v59.5v59.5h-58.5h-58.5V1240.5L1392.9,1240.5z M1826.9,1250.7
		c15.5-4.3,29.4-13.2,39.1-24.8c19.4-23.3,21.2-57.5,4.6-82.6c-6.9-10.3-17.1-19.4-28-24.7c-17.7-8.7-1.5-7.9-176.8-8.2l-155.7-0.3
		v71.5v71.5l155.2-0.3C1812,1252.5,1820.7,1252.4,1826.9,1250.7L1826.9,1250.7z"/>
	<g>
		<g>
			<path class="st0" d="M1587.5,0.2h-1174c-32.4,0-58.8,26.5-58.8,58.8s26.5,58.8,58.8,58.8h1174c32.4,0,58.8-26.5,58.8-58.8
				S1619.9,0.2,1587.5,0.2z"/>
			<path class="st0" d="M1763.3,176h-1526c-32.4,0-58.8,26.5-58.8,58.8s26.5,58.8,58.8,58.8h1526c32.4,0,58.8-26.5,58.8-58.8
				S1796.1,176,1763.3,176z"/>
			<path class="st0" d="M1763.3,352.2h-1526c-32.4,0-58.8,26.5-58.8,58.8s26.5,58.8,58.8,58.8h1526c32.4,0,58.8-26.5,58.8-58.8
				S1796.1,352.2,1763.3,352.2z"/>
			<path class="st0" d="M1763.3,528.3h-1526c-32.4,0-58.8,26.5-58.8,58.8c0,32.4,26.5,58.8,58.8,58.8h1526
				c32.4,0,58.8-26.5,58.8-58.8C1822.2,554.8,1796.1,528.3,1763.3,528.3z"/>
			<path class="st0" d="M1587.5,704.1h-1174c-32.4,0-58.8,26.5-58.8,58.8s26.5,58.8,58.8,58.8h1174c32.4,0,58.8-26.5,58.8-58.8
				C1646.4,730.6,1619.9,704.1,1587.5,704.1z"/>
		</g>
		<path id="path3374_1_" inkscape:connector-curvature="0" class="st1" d="M527,704.1h947v117.7H527V704.1z M352.9,646V528.3h1295.2
			V646H352.9z M352.9,352.2h1295.2v117.7H352.9V352.2z M352.9,176h1295.2v117.7H352.9V176z M527,0.2h947v117.7H527V0.2z"/>
		<path id="path3372_1_" inkscape:connector-curvature="0" class="st2" d="M704.6,704.1h591.9v117.7H704.6V704.1z M530.5,528.3h940
			V646h-940V528.3z M530.5,352.2h940v117.7h-940V352.2z M530.5,176h940v117.7h-940V176z M704.6,0.2h591.9v117.7H704.6V0.2z"/>
	</g>
</g>
</svg>
