<svg xmlns="http://www.w3.org/2000/svg" viewBox="0 0 118.25 227.32"><defs><style>.a{fill:#231f20;}</style></defs><title>Talpa</title><path class="a" d="M274.73,326.13A17.78,17.78,0,1,1,257,308.36,17.78,17.78,0,0,1,274.73,326.13ZM257,348.89a17.77,17.77,0,1,0,17.77,17.77A17.78,17.78,0,0,0,257,348.89Zm0,41a17.78,17.78,0,1,0,17.77,17.78A17.79,17.79,0,0,0,257,389.85Zm41.34-81.49a17.78,17.78,0,1,0,17.77,17.77A17.77,17.77,0,0,0,298.3,308.36Zm41.35,35.55a17.78,17.78,0,1,0-17.77-17.78A17.78,17.78,0,0,0,339.65,343.91Zm-41.35,5a17.77,17.77,0,1,0,17.77,17.77A17.77,17.77,0,0,0,298.3,348.89Zm41.35,0a17.77,17.77,0,1,0,17.77,17.77A17.78,17.78,0,0,0,339.65,348.89Zm-41.35,41a17.78,17.78,0,1,0,17.77,17.77A17.77,17.77,0,0,0,298.3,389.86Zm0,40.77a17.77,17.77,0,1,0,17.77,17.77A17.76,17.76,0,0,0,298.3,430.63Zm41.35-40.78a17.78,17.78,0,1,0,17.77,17.78A17.78,17.78,0,0,0,339.65,389.85Z" transform="translate(-239.18 -308.36)"/><path class="a" d="M288.71,497.05V523a3.16,3.16,0,0,0,6.31,0V497.05a3.16,3.16,0,0,0-6.31,0Z" transform="translate(-239.18 -308.36)"/><path class="a" d="M275,505l-.25.48-.42-.35a8.35,8.35,0,0,0-5.52-1.85,11.41,11.41,0,1,0,0,22.82,8.36,8.36,0,0,0,5.52-1.86l.42-.35.25.49a3.15,3.15,0,0,0,6-1.43V506.46a3.15,3.15,0,0,0-6-1.43Zm-11.27,9.68a5.62,5.62,0,1,1,5.61,5.62A5.62,5.62,0,0,1,263.71,514.71Z" transform="translate(-239.18 -308.36)"/><path class="a" d="M348.33,505l-.25.48-.42-.35a8.35,8.35,0,0,0-5.52-1.85,11.41,11.41,0,1,0,0,22.82,8.36,8.36,0,0,0,5.52-1.86l.42-.35.25.49a3.15,3.15,0,0,0,6-1.43V506.46a3.15,3.15,0,0,0-6-1.43Zm-11.27,9.68a5.61,5.61,0,1,1,5.61,5.62A5.62,5.62,0,0,1,337.06,514.71Z" transform="translate(-239.18 -308.36)"/><path class="a" d="M309.44,505.16l-.42.35-.25-.48a3.11,3.11,0,0,0-2.8-1.72,3.16,3.16,0,0,0-3.16,3.15v26.07a3.16,3.16,0,0,0,6.31,0V524l.7.52a8.47,8.47,0,0,0,5.15,1.57,11.41,11.41,0,0,0,0-22.82A8.36,8.36,0,0,0,309.44,505.16Zm-.62,9.56a5.62,5.62,0,1,1,5.62,5.61A5.62,5.62,0,0,1,308.82,514.72Z" transform="translate(-239.18 -308.36)"/><path class="a" d="M252.24,503.72h-3.62v-6.67a3.16,3.16,0,0,0-6.31,0V523a3.16,3.16,0,0,0,6.31,0V509.52h3.62a2.9,2.9,0,0,0,0-5.8Z" transform="translate(-239.18 -308.36)"/></svg>