<?xml version="1.0" encoding="UTF-8" standalone="no"?>
<!-- Created with Inkscape (http://www.inkscape.org/) -->
<svg
   xmlns:svg="http://www.w3.org/2000/svg"
   xmlns="http://www.w3.org/2000/svg"
   version="1.0"
   width="921.25983"
   height="354.33069"
   id="svg1975">
  <defs
     id="defs1977" />
  <g
     id="layer1">
    <g
       transform="matrix(3.543307,0,0,3.543307,-1.358174e-2,-5.761719e-6)"
       style="fill-rule:evenodd"
       id="Ebene_x0020_1">
  
  <rect
   width="125"
   height="90.5355"
   x="5.0036702"
   y="4.7322502"
   style="fill:#00368c"
   id="rect2032" />

  <rect
   width="125"
   height="90.5355"
   x="130.004"
   y="4.7322502"
   style="fill:#cf0052"
   id="rect2034" />

  <path
   d="M 24.1923,40.1247 L 38.8425,40.1247 L 38.8425,82.0238 L 66.8961,82.0238 L 66.8961,40.1247 L 81.5463,40.1247 L 81.5463,18.0068 L 24.1923,18.0068 L 24.1923,40.1247 L 24.1923,40.1247 z M 144.0433,82.0238 L 144.0433,61.9309 L 161.343,61.9309 L 161.343,45.8877 L 144.0433,45.8877 L 144.0433,34.05 L 168.2005,34.05 L 168.2005,18.0068 L 115.9897,18.0068 L 115.9897,82.0238 L 144.0433,82.0238 L 144.0433,82.0238 z M 201.2459,25.9664 L 201.2414,82.0238 L 230.3859,82.0238 L 230.3952,17.728 L 201.2459,25.9664 L 201.2459,25.9664 z "
   style="fill:white;fill-opacity:1"
   id="path2036" />

 </g>
  </g>
</svg>
