<svg xmlns="http://www.w3.org/2000/svg" viewBox="0 0 476.78 132.52"><defs><style>.a{fill:#ed1c24;}.b{fill:#fff;}.c{fill:#0054a6;}.d{fill:#f7931e;}</style></defs><title>Artboard 1</title><rect class="a" x="3.94" y="3.93" width="116.93" height="116.93" transform="translate(-4.2 4.51) rotate(-4)"/><polygon class="b" points="69.79 19.65 70.06 76.27 56.75 77.2 49.13 21.1 69.79 19.65"/><path class="b" d="M65.4,105a10.46,10.46,0,1,1,9.71-11.16A10.47,10.47,0,0,1,65.4,105"/><polygon class="c" points="31.73 132.53 8.15 124.8 124.8 116.64 139.48 125 31.73 132.53"/><polygon class="a" points="119.14 123.8 67.73 126.82 61.54 124.35 112.18 120.2 119.14 123.8"/><path class="a" d="M38.8,127.37c-1-1.06,2.42-2.22,7.59-2.58s10.21.21,11.2,1.27-2.41,2.21-7.59,2.57-10.21-.2-11.2-1.26"/><polygon class="d" points="132.47 24.91 139.47 124.99 124.8 116.64 116.64 0 132.47 24.91"/><polygon class="a" points="122.38 51.94 129.67 65.05 130.53 77.2 123.82 72.59 122.38 51.94"/><path class="a" d="M134.21,75.35c.41,5.75.1,9.44-.68,8.21s-1.75-6.91-2.15-12.67-.09-9.44.69-8.21,1.74,6.9,2.14,12.67"/><path d="M211.19,15.81l-17,62.51-17.1-62.51H155.57l26.67,93.69h23.84l26.53-93.69Z"/><path d="M451.69,15.81H425L399.21,109.5h21.12s4.57-16.08,5-17.62h25.92l4.52,17.62h21ZM429.55,74.1l8.59-33.21c1.52,6,7.84,30.79,8.45,33.21Z"/><path d="M392.32,109.51,372.86,68.27c9.88-3.83,14.9-11.87,14.9-23.93,0-9.1-3-16.17-8.89-21s-15-7.48-26.72-7.48H322.86v93.68H344.6V72.33H352l17,37.17Zm-39.11-54.2h-8.6V32.86h8.6c8.3,0,12.33,3.67,12.33,11.23s-4,11.22-12.33,11.22"/><path d="M284.14,15.81H257.46l-25.8,93.69h21.11l5-17.62h25.92l4.52,17.62h21ZM262,74.1l8.58-33.22c1.53,6,7.84,30.8,8.46,33.22Z"/></svg>