<svg xmlns="http://www.w3.org/2000/svg" viewBox="0 0 302.96 119.56"><defs><style>.a{fill:#ee7f00;}</style></defs><title>Asset 1</title><path class="a" d="M267.22,33.12a35.68,35.68,0,0,0-29.29,15.26h0a35.72,35.72,0,0,0-53.94-5v-9.9H153.83V89.38h-9.22c-9.53,0-16-3.48-16-16V63.53h15.46V33.37H128.62V0L112.35,33.37h-37L56.18,74.69,37,33.37H0l42,86.19H70.35l27.93-57.3v20.4a36.89,36.89,0,0,0,36.55,36.89H184V77.8a13.26,13.26,0,0,1,13.26-13.25c9.11,0,13.26,4.39,13.26,13.25v41.76h33.16V77.8a13.25,13.25,0,0,1,13.25-13.25c9.1,0,13.26,4.4,13.26,13.25v41.76H303V68.85A35.74,35.74,0,0,0,267.22,33.12Z"/></svg>